# Blender v3.0.0 OBJ File: 'room.blend'
# www.blender.org
mtllib room2.0.mtl
v 0.500000 -0.500000 0.500000
v 0.500000 0.500000 0.500000
v 0.500000 -0.500000 -0.900000
v 0.500000 0.500000 -0.900000
v -0.500000 -0.500000 -0.900000
v -0.500000 -0.500000 0.500000
v -0.500000 0.500000 0.500000
v -0.500000 0.500000 -0.900000
vt 0.125000 0.750000
vt 0.375000 0.500000
vt 0.125000 0.500000
vt 0.625000 0.750000
vt 0.875000 0.500000
vt 0.625000 0.500000
vt 0.375000 0.750000
vt 0.875000 0.750000
vn 0.0000 1.0000 0.0000
vn 0.0000 -1.0000 0.0000
g Cube.001_Cube.001_None
usemtl None
s off
f 6/1/1 3/2/1 5/3/1
f 2/4/2 8/5/2 4/6/2
f 6/1/1 1/7/1 3/2/1
f 2/4/2 7/8/2 8/5/2
v -0.500000 -0.081396 0.345922
v -0.500000 0.241579 0.345922
v -0.500000 -0.081396 -0.145649
v -0.500000 0.241579 -0.145649
v -0.500000 -0.500000 -0.900000
v -0.500000 -0.500000 0.500000
v -0.500000 0.500000 0.500000
v -0.500000 0.500000 -0.900000
vt 0.460938 0.441406
vt 0.000000 0.144531
vt 1.000000 0.144531
vt 0.109375 0.441406
vt 0.000000 0.855469
vt 0.460938 0.671875
vt 0.109375 0.671875
vt 1.000000 0.855469
vn 1.0000 0.0000 0.0000
g Cube.002_Cube.002_None
usemtl None
s off
f 11/9/3 14/10/3 13/11/3
f 9/12/3 15/13/3 14/10/3
f 12/14/3 15/13/3 10/15/3
f 11/9/3 16/16/3 12/14/3
f 11/9/3 9/12/3 14/10/3
f 9/12/3 10/15/3 15/13/3
f 12/14/3 16/16/3 15/13/3
f 11/9/3 13/11/3 16/16/3
v 0.500000 -0.500000 -0.900000
v 0.500000 0.500000 -0.900000
v -0.500000 -0.500000 -0.900000
v -0.500000 0.500000 -0.900000
vt 1.000000 0.000000
vt 0.000000 1.000000
vt 0.000000 0.000000
vt 1.000000 1.000000
vn 0.0000 0.0000 1.0000
g Cube.003_Cube.003_None
usemtl None
s off
f 17/17/4 20/18/4 19/19/4
f 17/17/4 18/20/4 20/18/4
v 0.500000 -0.500000 0.500000
v 0.500000 0.500000 0.500000
v -0.500000 -0.500000 0.500000
v -0.500000 0.500000 0.500000
vt 1.000000 0.000000
vt 0.000000 1.000000
vt 0.000000 0.000000
vt 1.000000 1.000000
vn 0.0000 0.0000 -1.0000
g Cube.004_Cube.004_None
usemtl None
s off
f 23/21/5 22/22/5 21/23/5
f 23/21/5 24/24/5 22/22/5
