# Blender v3.0.0 OBJ File: 'room.blend'
# www.blender.org
mtllib room2.0.mtl
o Cube.001
v -0.500000 -0.081396 0.345922
v -0.500000 0.241579 0.345922
v -0.500000 -0.081396 -0.145649
v -0.500000 0.241579 -0.145649
v 0.500000 -0.500000 0.500000
v 0.500000 0.500000 0.500000
v 0.500000 -0.500000 -0.500000
v 0.500000 0.500000 -0.500000
v -0.500000 -0.500000 -0.500000
v -0.500000 -0.500000 0.500000
v -0.500000 0.500000 0.500000
v -0.500000 0.500000 -0.500000
vt 0.375000 0.500000
vt 0.625000 0.250000
vt 0.375000 0.250000
vt 0.375000 1.000000
vt 0.625000 0.750000
vt 0.375000 0.750000
vt 0.125000 0.750000
vt 0.125000 0.500000
vt 0.875000 0.500000
vt 0.625000 0.500000
vt 0.388551 0.236449
vt 0.375000 0.000000
vt 0.388551 0.013551
vt 0.625000 0.000000
vt 0.611449 0.236449
vt 0.611449 0.013551
vt 0.625000 1.000000
vt 0.875000 0.750000
vn 0.0000 0.0000 1.0000
vn 0.0000 0.0000 -1.0000
vn 0.0000 1.0000 0.0000
vn 0.0000 -1.0000 0.0000
vn 1.0000 0.0000 0.0000
usemtl None
s off
f 7/1/1 12/2/1 9/3/1
f 10/4/2 6/5/2 5/6/2
f 10/7/3 7/1/3 9/8/3
f 6/5/4 12/9/4 8/10/4
f 3/11/5 10/12/5 9/3/5
f 1/13/5 11/14/5 10/12/5
f 4/15/5 11/14/5 2/16/5
f 3/11/5 12/2/5 4/15/5
f 7/1/1 8/10/1 12/2/1
f 10/4/2 11/17/2 6/5/2
f 10/7/3 5/6/3 7/1/3
f 6/5/4 11/18/4 12/9/4
f 3/11/5 1/13/5 10/12/5
f 1/13/5 2/16/5 11/14/5
f 4/15/5 12/2/5 11/14/5
f 3/11/5 9/3/5 12/2/5
