# Blender v3.0.0 OBJ File: 'table.blend'
# www.blender.org
mtllib table.mtl
o Cube
v 1.495714 0.604027 0.970664
v 1.495714 -0.604027 0.970664
v 1.495714 0.604027 0.886521
v 1.495714 -0.604027 0.886521
v 1.579857 0.604027 0.970664
v 1.579857 -0.604027 0.970664
v 1.579857 0.604027 0.886521
v 1.579857 -0.604027 0.886521
v -1.495714 0.604027 0.970664
v -1.495714 -0.604027 0.970664
v -1.495714 0.604027 0.886521
v -1.495714 -0.604027 0.886521
v -1.579857 0.604027 0.970664
v -1.579857 -0.604027 0.970664
v -1.579857 0.604027 0.886521
v -1.579857 -0.604027 0.886521
v 1.495714 0.604027 -0.970664
v 1.495714 -0.604027 -0.970664
v 1.495714 0.604027 -0.886521
v 1.495714 -0.604027 -0.886521
v 1.579857 0.604027 -0.970664
v 1.579857 -0.604027 -0.970664
v 1.579857 0.604027 -0.886521
v 1.579857 -0.604027 -0.886521
v -1.495714 0.604027 -0.970664
v -1.495714 -0.604027 -0.970664
v -1.495714 0.604027 -0.886521
v -1.495714 -0.604027 -0.886521
v -1.579857 0.604027 -0.970664
v -1.579857 -0.604027 -0.970664
v -1.579857 0.604027 -0.886521
v -1.579857 -0.604027 -0.886521
vt 0.625000 0.500000
vt 0.875000 0.500000
vt 0.875000 0.750000
vt 0.625000 0.750000
vt 0.375000 0.750000
vt 0.625000 1.000000
vt 0.375000 1.000000
vt 0.375000 0.000000
vt 0.625000 0.000000
vt 0.625000 0.250000
vt 0.375000 0.250000
vt 0.125000 0.500000
vt 0.375000 0.500000
vt 0.125000 0.750000
vt 0.625000 0.500000
vt 0.625000 0.750000
vt 0.875000 0.750000
vt 0.875000 0.500000
vt 0.375000 0.750000
vt 0.375000 1.000000
vt 0.625000 1.000000
vt 0.375000 0.000000
vt 0.375000 0.250000
vt 0.625000 0.250000
vt 0.625000 0.000000
vt 0.125000 0.500000
vt 0.125000 0.750000
vt 0.375000 0.500000
vt 0.625000 0.500000
vt 0.625000 0.750000
vt 0.875000 0.750000
vt 0.875000 0.500000
vt 0.375000 0.750000
vt 0.375000 1.000000
vt 0.625000 1.000000
vt 0.375000 0.000000
vt 0.375000 0.250000
vt 0.625000 0.250000
vt 0.625000 0.000000
vt 0.125000 0.500000
vt 0.125000 0.750000
vt 0.375000 0.500000
vt 0.625000 0.500000
vt 0.875000 0.500000
vt 0.875000 0.750000
vt 0.625000 0.750000
vt 0.375000 0.750000
vt 0.625000 1.000000
vt 0.375000 1.000000
vt 0.375000 0.000000
vt 0.625000 0.000000
vt 0.625000 0.250000
vt 0.375000 0.250000
vt 0.125000 0.500000
vt 0.375000 0.500000
vt 0.125000 0.750000
vn 0.0000 1.0000 0.0000
vn 0.0000 0.0000 -1.0000
vn 1.0000 0.0000 0.0000
vn 0.0000 -1.0000 0.0000
vn -1.0000 0.0000 0.0000
vn 0.0000 0.0000 1.0000
usemtl None
s off
f 1/1/1 5/2/1 7/3/1 3/4/1
f 4/5/2 3/4/2 7/6/2 8/7/2
f 8/8/3 7/9/3 5/10/3 6/11/3
f 6/12/4 2/13/4 4/5/4 8/14/4
f 2/13/5 1/1/5 3/4/5 4/5/5
f 6/11/6 5/10/6 1/1/6 2/13/6
f 9/15/1 11/16/1 15/17/1 13/18/1
f 12/19/2 16/20/2 15/21/2 11/16/2
f 16/22/5 14/23/5 13/24/5 15/25/5
f 14/26/4 16/27/4 12/19/4 10/28/4
f 10/28/3 12/19/3 11/16/3 9/15/3
f 14/23/6 10/28/6 9/15/6 13/24/6
f 17/29/1 19/30/1 23/31/1 21/32/1
f 20/33/6 24/34/6 23/35/6 19/30/6
f 24/36/3 22/37/3 21/38/3 23/39/3
f 22/40/4 24/41/4 20/33/4 18/42/4
f 18/42/5 20/33/5 19/30/5 17/29/5
f 22/37/2 18/42/2 17/29/2 21/38/2
f 25/43/1 29/44/1 31/45/1 27/46/1
f 28/47/6 27/46/6 31/48/6 32/49/6
f 32/50/5 31/51/5 29/52/5 30/53/5
f 30/54/4 26/55/4 28/47/4 32/56/4
f 26/55/3 25/43/3 27/46/3 28/47/3
f 30/53/2 29/52/2 25/43/2 26/55/2
o Cube.001
v -1.614400 0.604197 1.000000
v -1.614400 0.604197 -1.000000
v 1.614400 0.604197 1.000000
v 1.614400 0.604197 -1.000000
vt 0.125000 0.500000
vt 0.125000 0.750000
vt 0.375000 0.750000
vt 0.375000 0.500000
vn 0.0000 1.0000 0.0000
usemtl None
s off
f 34/57/7 33/58/7 35/59/7 36/60/7
